# xmcd
#
# Track frame offsets:
#	150
#	2825
#	6869
#	14985
#	18703
#	27898
#	30761
#	37636
#	39162
#	49253
#	50899
#	59691
#	63142
#	67300
#	73579
#	78003
#	86497
#
# Disc length: 1275 seconds
#
# Revision: 1
# Processed by: cddbd v1.5.1PL0 Copyright (c) Steve Scherf et al.
# Submitted via: EasyCDDAExtractor 5.0.6
#
DISCID=d804f911
DTITLE=Dick Nasty - Selling Bullshit To Arseholes
DYEAR=2002
DGENRE=Hardcore, Punk, Rock
TTITLE0=Cashing In
TTITLE1=The Kids Can Get Fucked
TTITLE2=I Need More Hands To Get These Daggers Out Of My Back
TTITLE3=Shoestring
TTITLE4=Jaw Wires
TTITLE5=Ray's Army
TTITLE6=Baby You're Dead
TTITLE7=Stop Talking Shit
TTITLE8=MBF
TTITLE9=Always Bet On Black, Baby
TTITLE10=Expectations Will Be The Death Of Us
TTITLE11=Cunty
TTITLE12=Your Gene Pool Needs Chlorine
TTITLE13=The Ballad Of Vic Morrow
TTITLE14=Stitch This Jimmy
TTITLE15=SL Not T
TTITLE16=Everyone Knows The Nutbush
EXTD=
EXTT0=
EXTT1=
EXTT2=
EXTT3=
EXTT4=
EXTT5=
EXTT6=
EXTT7=
EXTT8=
EXTT9=
EXTT10=
EXTT11=
EXTT12=
EXTT13=
EXTT14=
EXTT15=
EXTT16=
PLAYORDER=
